<svg width="32" height="32" viewBox="0 0 32 32" fill="none" xmlns="http://www.w3.org/2000/svg">
<g clip-path="url(#clip0_103_2)">
<rect width="32" height="32" fill="white"/>
<path d="M18.0218 2.64C18.6218 2.64 19.3538 3.036 20.2178 3.828C21.0818 4.62 21.5138 5.436 21.5138 6.276C21.5138 8.58 20.3258 13.044 17.9498 19.668C17.1338 21.996 16.7258 23.616 16.7258 24.528C16.7258 24.648 16.7498 24.72 16.7978 24.744C16.8458 24.768 17.2898 24.78 18.1298 24.78C18.9698 24.78 20.1218 24.66 21.5858 24.42C23.0738 24.156 24.2738 23.904 25.1858 23.664C26.1218 23.424 26.6738 23.304 26.8418 23.304C27.4418 23.304 27.7418 23.688 27.7418 24.456C27.7418 25.968 26.5898 27.192 24.2858 28.128C22.0058 29.04 19.3538 29.496 16.3298 29.496C15.1538 29.496 14.0738 29.064 13.0898 28.2C12.1298 27.312 11.6498 26.34 11.6498 25.284C11.6498 24.228 12.5378 20.82 14.3138 15.06C16.0898 9.276 16.9778 5.532 16.9778 3.828C16.9778 3.036 17.3258 2.64 18.0218 2.64Z" fill="#6EE7FF"/>
<path d="M8.83853 2.18C9.29453 2.18 10.1825 2.672 11.5025 3.656C12.8465 4.616 13.5185 5.336 13.5185 5.816C13.5185 6.656 13.7945 8.036 14.3465 9.956C14.8985 11.876 15.5345 13.616 16.2545 15.176C16.9745 14.336 18.1865 12.788 19.8905 10.532C21.6185 8.252 23.0705 6.452 24.2465 5.132C25.4225 3.812 26.2985 3.152 26.8745 3.152C27.4505 3.152 28.0505 3.476 28.6745 4.124C29.2985 4.772 29.6105 5.42 29.6105 6.068C29.6105 6.716 29.5145 7.556 29.3225 8.588C29.1305 9.596 28.9145 10.544 28.6745 11.432C28.4585 12.296 28.1345 13.484 27.7025 14.996C27.2945 16.508 26.9705 17.708 26.7305 18.596C26.5145 19.46 26.2865 20.396 26.0465 21.404C25.8065 22.388 25.6145 23.168 25.4705 23.744C25.3505 24.296 25.2065 24.884 25.0385 25.508C24.8945 26.108 24.7625 26.576 24.6425 26.912C24.5225 27.224 24.3905 27.512 24.2465 27.776C23.9825 28.28 23.6105 28.532 23.1305 28.532C22.6505 28.532 22.1705 28.064 21.6905 27.128C21.2345 26.168 21.0065 25.172 21.0065 24.14C21.0065 21.596 21.7385 18.224 23.2025 14.024C22.7945 14.552 22.2065 15.332 21.4385 16.364C20.6705 17.372 20.0945 18.116 19.7105 18.596C19.3505 19.052 18.8945 19.592 18.3425 20.216C17.3585 21.296 16.3985 21.836 15.4625 21.836C14.2145 21.836 13.3265 21.344 12.7985 20.36C12.5345 19.856 12.1745 18.728 11.7185 16.976C11.2865 15.2 10.9745 13.976 10.7825 13.304C10.4705 15.776 10.0505 18.02 9.52253 20.036C8.99453 22.052 8.64653 23.372 8.47853 23.996C8.31053 24.62 8.08253 25.376 7.79453 26.264C7.31453 27.776 6.88253 28.532 6.49853 28.532C6.06653 28.532 5.46653 27.968 4.69853 26.84C3.95453 25.688 3.58253 24.788 3.58253 24.14C3.58253 23.492 4.27853 20.252 5.67053 14.42C7.08653 8.588 7.79453 4.904 7.79453 3.368C7.79453 2.576 8.14253 2.18 8.83853 2.18Z" fill="black"/>
</g>
<defs>
<clipPath id="clip0_103_2">
<rect width="32" height="32" fill="white"/>
</clipPath>
</defs>
</svg>
